<svg xmlns="http://www.w3.org/2000/svg" version="1.2" viewbox="0 0 600 600" width="500%" height="500%">
    <path fill="#EF914E" stroke="#000" stroke-width="3" d="M65 153l140-83C179 17 126-7 88 15s-49 85-23 138"/>
    <path fill="#F2F2D8" stroke="#000" stroke-width=".5" d="M110 110l52-31c-9-20-29-28-43-20-15 8-18 31-8 51"/>
    <path fill="#EF914E" stroke="#000" stroke-width="3" d="M554 194c36-47 39-108 5-139-32-29-89-17-124 29l118 110"/>
    <path fill="#F2F2D8" stroke="#000" stroke-width=".5" d="M522 140c13-17 14-41 2-53-12-11-34-6-48 10l45 42"/>
    <path fill="#ED924E" stroke="#000" stroke-width="3" d="M302 42c10 0 42 0 83 12 27 8 118 35 169 119 20 33 27 66 30 78 2 10 6 35 4 71-2 47-7 122-65 185-55 61-128 74-155 79-56 9-100 0-123-6-41-7-162-36-214-145-40-86-14-173-7-195 12-43 32-71 37-78 52-74 130-98 157-107 12-4 48-13 84-13z"/>
    <circle cx="195" cy="196" r="22" stroke="#000"/>
    <circle cx="421" cy="220" r="24" stroke="#000"/>
    <path d="M430 149c27-2 53 1 66 10-6-14-34-24-66-22-36 1-65 17-65 34v2c11-11 36-21 65-24zm-231-9c-31-2-59 2-73 12 7-15 38-27 73-25 41 1 73 17 73 37v2c-11-13-39-23-73-26z"/>
    <path fill="#994E27" d="M294 363c-16 25-52 44-94 44h-11c0 3 180 18 180 18s-46 0-75-62z"/>
    <path fill="#F2B8B0" stroke="#000" stroke-width="2" d="M187 408c12 13 48 45 100 50 53 5 84-33 84-33s-27-7-31-9c-15-4-16-6-29-10-12-3-54-5-67-2-25 2-45 3-57 4z"/>
    <ellipse cx="299" cy="329" fill="#ED924E" stroke="#000" stroke-width="2" rx="40" ry="38"/>
    <path fill="none" stroke="#000" stroke-miterlimit="10" stroke-width="2" d="M416 413c-8 5-23 11-41 11-32 0-63-23-79-57m-2 0c-16 27-106 68-166 14"/>
    <path fill="none" stroke="#000" stroke-width="2" d="M231 480c20 17 80 23 103 5"/>
    <path fill="#E8E8E8" stroke="#000" d="M492 306s-16 43-14 62c1 19 24 18 27 4 2-14-12-67-12-67"/>
</svg>